<svg style="position: absolute; width: 0; height: 0; overflow: hidden;" version="1.1" xmlns="http://www.w3.org/2000/svg" xmlns:xlink="http://www.w3.org/1999/xlink">
<defs>
<symbol id="icon-bomb" viewBox="0 0 32 32">
<title>bomb</title>
<path class="path1" d="M3.244 8.943c0.158-0.030 0.308-0.098 0.468-0.115 1.018-0.037 2.046 0.161 2.974 0.582 0.878 0.391 1.668 0.978 2.297 1.704 0.561 0.637 0.99 1.385 1.287 2.179 0.61-1.243 1.612-2.287 2.83-2.945 1.095-0.595 2.358-0.876 3.601-0.793 1.151 0.072 2.285 0.449 3.243 1.091 0.768 0.493 1.414 1.163 1.92 1.921 0.157 0.246 0.313 0.495 0.426 0.765 0.559-1.647 1.804-3.042 3.361-3.811 0.482-0.24 0.994-0.42 1.52-0.537 0.584-0.138 1.19-0.19 1.788-0.138 0.316 0.114 0.636 0.247 0.902 0.459 0.743 0.551 1.154 1.49 1.13 2.407-0.009 0.601-0.199 1.201-0.549 1.691 0.684 0.553 1.092 1.429 1.079 2.308 0.014 0.696-0.228 1.396-0.677 1.929 0.61 0.794 0.776 1.895 0.448 2.838-0.26 0.771-0.86 1.446-1.642 1.707-0.144 0.020-0.253 0.136-0.399 0.146-0.353 0.032-0.707 0.057-1.060 0.018-1.986-0.092-3.883-1.171-5.029-2.787-0.215-0.302-0.404-0.622-0.571-0.953-0.366 1.020-0.975 1.955-1.772 2.691-0.84 0.782-1.885 1.341-3.001 1.606-0.447 0.116-0.91 0.137-1.368 0.173-0.756 0.007-1.519-0.081-2.239-0.321-1.108-0.36-2.111-1.022-2.898-1.879-0.586-0.663-1.059-1.431-1.35-2.268-0.489 1.011-1.244 1.888-2.159 2.536-0.78 0.552-1.68 0.931-2.619 1.108-0.37 0.063-0.745 0.085-1.119 0.11-0.278 0.016-0.554-0.042-0.831-0.032-0.199 0.006-0.392-0.060-0.577-0.125-0.369-0.144-0.713-0.362-0.977-0.66-0.936-0.988-1.040-2.64-0.25-3.746-0.544-0.583-0.813-1.399-0.769-2.191 0.004-0.442 0.137-0.877 0.344-1.265 0.193-0.385 0.488-0.712 0.831-0.969-0.402-0.597-0.574-1.34-0.485-2.053 0.065-0.454 0.209-0.902 0.466-1.285 0.337-0.508 0.836-0.927 1.426-1.099zM3.681 9.856c-0.294 0.070-0.583 0.2-0.787 0.43-0.412 0.397-0.603 0.99-0.559 1.555 0.040 0.442 0.195 0.889 0.507 1.214 0.108 0.107 0.17 0.261 0.15 0.413-0.013 0.155-0.125 0.272-0.189 0.406-0.062 0.129-0.197 0.191-0.313 0.262-0.424 0.266-0.699 0.725-0.807 1.206-0.113 0.66 0.049 1.406 0.557 1.869 0.127 0.13 0.318 0.197 0.4 0.369 0.099 0.187 0.057 0.432-0.095 0.578-0.074 0.078-0.178 0.113-0.279 0.143-0.092 0.178-0.21 0.344-0.263 0.54-0.229 0.652-0.103 1.425 0.335 1.962 0.235 0.245 0.518 0.474 0.862 0.534 0.321-0.006 0.64 0.064 0.961 0.029 0.268-0.018 0.537-0.037 0.803-0.080 1.064-0.19 2.072-0.692 2.86-1.433 0.815-0.754 1.401-1.748 1.673-2.825-1.038 0.555-2.205 0.879-3.384 0.9-0.25-0.010-0.463-0.242-0.456-0.492-0.007-0.25 0.204-0.479 0.454-0.492 0.331-0.023 0.662-0.048 0.988-0.107 0.883-0.172 1.736-0.51 2.482-1.015 0.009-0.105 0.018-0.209 0.030-0.314-0.907-0.968-2.143-1.596-3.438-1.852-0.18-0.029-0.337-0.161-0.392-0.336-0.071-0.211 0.020-0.463 0.214-0.575 0.13-0.084 0.292-0.083 0.437-0.048 1.089 0.227 2.137 0.679 3.027 1.35-0.102-0.332-0.206-0.664-0.36-0.976-0.368-0.767-0.906-1.452-1.565-1.988-0.932-0.759-2.11-1.213-3.312-1.266-0.181-0.007-0.368-0.027-0.542 0.036zM27.899 9.868c-0.939 0.107-1.842 0.472-2.608 1.022-0.966 0.699-1.716 1.699-2.092 2.833 0.725-0.417 1.51-0.746 2.336-0.897 0.25-0.044 0.508 0.141 0.554 0.389 0.061 0.258-0.124 0.537-0.383 0.585-1.021 0.22-1.994 0.67-2.803 1.334 0.005 0.226 0.054 0.447 0.062 0.673 0.009 0.060-0.009 0.142 0.060 0.173 0.926 0.625 2.015 1.011 3.129 1.103 0.181 0.026 0.337 0.164 0.39 0.338 0.076 0.222-0.035 0.486-0.245 0.59-0.161 0.088-0.348 0.044-0.521 0.029-0.934-0.113-1.844-0.412-2.674-0.854 0.22 0.799 0.633 1.535 1.155 2.175 0.214 0.265 0.473 0.486 0.725 0.713 0.753 0.622 1.666 1.051 2.629 1.22 0.509 0.068 1.028 0.122 1.54 0.048 0.188-0.096 0.389-0.17 0.56-0.297 0.284-0.193 0.482-0.488 0.612-0.802 0.204-0.52 0.188-1.122-0.044-1.63-0.106-0.24-0.276-0.444-0.446-0.641-0.142-0.131-0.195-0.348-0.125-0.529 0.060-0.178 0.238-0.27 0.351-0.41 0.528-0.631 0.622-1.593 0.205-2.307-0.172-0.327-0.458-0.585-0.788-0.748-0.296-0.157-0.374-0.614-0.118-0.842 0.646-0.569 0.815-1.571 0.457-2.342-0.198-0.456-0.6-0.824-1.079-0.964-0.281-0.026-0.561 0.014-0.839 0.039zM16.041 10.538c-0.624 0.022-1.244 0.151-1.824 0.381-1.18 0.456-2.197 1.321-2.84 2.41-0.676 1.116-0.942 2.464-0.776 3.755 0.095 0.569 0.228 1.137 0.482 1.658 0.228 0.518 0.551 0.989 0.916 1.42 0.798 0.89 1.87 1.543 3.042 1.796 0.346 0.083 0.702 0.104 1.056 0.127 0.3 0.022 0.6-0.020 0.899-0.045 0.434-0.035 0.855-0.156 1.263-0.302 1.062-0.396 2.001-1.115 2.656-2.040 0.624-0.873 1.003-1.924 1.065-2.996-0.049-0.392-0.093-0.786-0.082-1.181 0.008-0.177-0.004-0.355-0.052-0.526-0.207-0.877-0.613-1.709-1.192-2.401-0.35-0.418-0.75-0.798-1.211-1.092-0.991-0.677-2.203-1.021-3.402-0.964z"></path>
<path class="path2" d="M4.78 10.352c0.259-0.072 0.55 0.106 0.603 0.37 0.067 0.258-0.115 0.543-0.376 0.594-0.266 0.066-0.557-0.132-0.593-0.403-0.047-0.245 0.124-0.504 0.367-0.56z"></path>
<path class="path3" d="M28.461 10.996c0.254-0.090 0.558 0.068 0.628 0.329 0.089 0.269-0.102 0.583-0.382 0.627-0.261 0.056-0.54-0.136-0.579-0.4-0.046-0.235 0.105-0.485 0.333-0.556z"></path>
<path class="path4" d="M18.22 11.629c0.284-0.088 0.607 0.134 0.624 0.431 0.034 0.273-0.2 0.54-0.475 0.54-0.261 0.017-0.505-0.207-0.51-0.468-0.017-0.226 0.143-0.446 0.361-0.502z"></path>
<path class="path5" d="M14.379 12.624c0.273-0.113 0.612 0.076 0.659 0.367 0.057 0.256-0.125 0.532-0.383 0.58-0.238 0.055-0.499-0.094-0.571-0.327-0.087-0.243 0.051-0.535 0.295-0.62z"></path>
<path class="path6" d="M3.244 14.192c0.247-0.053 0.514 0.114 0.572 0.36 0.054 0.239-0.052 0.526-0.282 0.632-0.208 0.105-0.482 0.034-0.614-0.156-0.216-0.288-0.037-0.776 0.324-0.836z"></path>
<path class="path7" d="M17.741 14.255c0.266-0.092 0.58 0.090 0.631 0.367 0.065 0.261-0.124 0.548-0.389 0.591-0.249 0.054-0.518-0.118-0.573-0.366-0.067-0.245 0.088-0.521 0.332-0.591z"></path>
<path class="path8" d="M24.745 14.54c0.264-0.107 0.591 0.065 0.652 0.342 0.077 0.271-0.125 0.575-0.404 0.61-0.262 0.048-0.534-0.153-0.564-0.418-0.037-0.224 0.102-0.459 0.316-0.534z"></path>
<path class="path9" d="M6.83 15.061c0.273-0.067 0.57 0.144 0.594 0.424 0.040 0.268-0.178 0.536-0.447 0.551-0.263 0.031-0.521-0.185-0.535-0.449-0.028-0.241 0.151-0.48 0.388-0.526z"></path>
<path class="path10" d="M11.726 15.444c0.315-0.080 0.672 0.195 0.659 0.524 0 0.198-0.134 0.387-0.321 0.453-0.308 0.121-0.689-0.126-0.714-0.454-0.024-0.236 0.145-0.47 0.375-0.523z"></path>
<path class="path11" d="M28.105 15.468c0.335-0.135 0.727 0.183 0.701 0.533-0.008 0.229-0.197 0.433-0.425 0.46-0.325 0.050-0.648-0.27-0.597-0.596 0.022-0.179 0.151-0.338 0.321-0.398z"></path>
<path class="path12" d="M19.626 16.14c0.256-0.103 0.572 0.055 0.645 0.32 0.088 0.264-0.092 0.573-0.364 0.626-0.246 0.062-0.517-0.099-0.583-0.343-0.076-0.24 0.064-0.521 0.303-0.603z"></path>
<path class="path13" d="M15.086 16.407c0.271-0.086 0.583 0.11 0.623 0.391 0.056 0.273-0.163 0.56-0.441 0.577-0.262 0.032-0.52-0.181-0.537-0.444-0.028-0.231 0.132-0.464 0.356-0.524z"></path>
<path class="path14" d="M13.23 18.419c0.237-0.065 0.506 0.076 0.585 0.309 0.076 0.226 0.007 0.513-0.203 0.644-0.204 0.138-0.505 0.090-0.655-0.106-0.227-0.274-0.086-0.768 0.273-0.847z"></path>
<path class="path15" d="M25.58 18.674c0.273-0.088 0.588 0.111 0.626 0.395 0.053 0.273-0.166 0.556-0.443 0.572-0.258 0.031-0.513-0.177-0.535-0.436-0.032-0.233 0.127-0.47 0.353-0.532z"></path>
<path class="path16" d="M3.718 19.305c0.293-0.116 0.649 0.119 0.657 0.434 0.034 0.342-0.34 0.624-0.662 0.536-0.219-0.054-0.383-0.273-0.367-0.499 0.001-0.22 0.171-0.405 0.373-0.471z"></path>
<path class="path17" d="M28.686 19.32c0.285-0.093 0.611 0.128 0.631 0.426 0.047 0.238-0.096 0.499-0.33 0.571-0.271 0.102-0.598-0.089-0.644-0.374-0.066-0.257 0.080-0.554 0.343-0.623z"></path>
<path class="path18" d="M18.060 19.925c0.271-0.11 0.606 0.074 0.657 0.362 0.065 0.269-0.14 0.561-0.415 0.591-0.254 0.043-0.516-0.147-0.556-0.401-0.046-0.229 0.094-0.474 0.314-0.552z"></path>
</symbol>
<symbol id="icon-bonbon" viewBox="0 0 32 32">
<title>bonbon</title>
<path class="path1" d="M24.38 16.601c-0.921-2.116-2.376-3.932-4.688-4.551 1.117-0.62 2.482-1.745 2.406-3.167-0.021-0.401-0.152-0.785-0.195-1.182-0.044-0.416 0.579-2.9 0.185-3.145-0.382-0.238-1.224-0.259-1.673-0.284-0.707-0.039-1.199 0.272-1.77 0.644-1.323 0.864-1.968-0.612-2.606-1.551-0.353-0.521-1.219 0.378-1.544 0.565-0.426 0.244-0.899 0.399-1.363 0.165-0.261-0.132-0.48-0.338-0.678-0.548-0.187-0.199-0.401-0.63-0.716-0.622-0.768 0.018-0.668 1.052-0.658 1.53 0.018 0.905-0.013 1.811-0.081 2.713-0.060 0.782-0.221 1.576-0.013 2.349 0.359 1.331 1.526 2.267 2.733 2.815-3.119 1.080-4.961 3.478-5.997 6.515-0.812 2.382-1.241 4.926-1.649 7.405-0.076 0.459-0.161 0.969-0.060 1.431 0.14 0.632 1.159 0.701 1.678 0.771 1.935 0.262 3.901 0.431 5.848 0.567 1.995 0.139 9.071 0.067 11.020-0.697 0.729-0.286 1.337-0.582 1.449-1.405 0.172-1.256-0.512-7.752-1.628-10.317zM12.324 9.522c-0.421-0.843-0.235-2.134-0.124-2.733 0.024-0.134 0.049-0.266 0.073-0.396 0.069-0.373 0.069-0.756 0.048-1.133 0.975 0.719 2.183-0.034 3.022-0.634 0.421 0.666 1.063 1.867 1.973 1.899 0.448 0.016 1.009-0.264 1.403-0.464 0.264-0.134 0.513-0.296 0.751-0.472-0.016 0.012 0.212-0.204 0.176-0.205 0.447 0.012 0.99 0.198 1.445 0.268-0.112 0.712-0.43 1.438-0.366 2.169 0.062 0.701 0.179 1.318-0.135 1.986-0.554 1.179-1.941 1.652-3.15 1.767 0.533-0.397 1.042-1.068 1.213-1.722 0.083-0.317 0.161-0.648 0.092-0.978-0.128-0.614-0.444-0.059-0.539 0.22-0.197 0.581-0.536 1.151-0.903 1.636-0.165 0.267-0.471 0.882-0.794 0.869-0.13-0.005-0.26-0.013-0.39-0.025-0.072-0.2-0.156-0.397-0.236-0.595-0.122-0.301-0.207-0.615-0.326-0.917-0.334-0.655-0.487-1.57-0.627-2.284-0.073-0.372-0.139-0.747-0.22-1.117-0.132-0.601-0.411-0.228-0.462 0.172-0.105 0.816 0.058 1.698 0.292 2.475 0.097 0.322 0.173 0.681 0.343 0.974 0.131 0.277 0.253 0.562 0.419 0.82 0.046 0.066 0.276 0.311 0.276 0.402-1.234-0.208-2.66-0.795-3.253-1.982zM15.749 13.108c1.324-0.16 2.74-0.183 4.002 0.305 1.985 0.769 3.273 2.904 4.029 4.994 0.078 0.262 0.14 0.529 0.208 0.794-0.9-0.807-2.158-1.304-3.236-1.834-0.756-0.372-1.549-0.671-2.327-0.994-0.787-0.327-1.57-0.661-2.362-0.977-1.308-0.522-2.868-1.062-4.3-0.89 1.174-0.81 2.579-1.229 3.985-1.399zM11.16 14.98c-0.054 0.030 0.003-0.027 0.364-0.301 0.333 0.165 0.768 0.154 1.127 0.239 0.444 0.106 0.878 0.252 1.308 0.406 0.814 0.294 1.616 0.624 2.409 0.972 0.884 0.388 1.767 0.774 2.66 1.143 1.114 0.461 2.248 0.887 3.341 1.393 0.359 0.166 0.723 0.324 1.081 0.492 0.212 0.1 0.418 0.22 0.645 0.279 0.072 0.307 0.138 0.614 0.2 0.923 0.231 1.16 0.367 2.329 0.527 3.5-0.636-0.391-1.501-0.532-2.206-0.78-0.66-0.233-1.316-0.475-1.976-0.709-1.182-0.42-2.393-0.892-3.535-1.408-1.124-0.507-2.258-0.997-3.365-1.54-0.812-0.398-1.629-0.786-2.43-1.206-0.548-0.288-1.228-0.796-1.838-0.898 0.351-0.963 0.928-1.826 1.689-2.505zM12.295 27.706c-0.973-0.108-1.945-0.215-2.918-0.323-0.486-0.053-0.972-0.108-1.459-0.161-0.208-0.023-0.552 0.031-0.668-0.196-0.222-0.431-0.061-1.109 0.009-1.556 0.137-0.87 0.348-1.728 0.571-2.579 0.078 0.36 0.9 0.785 1.187 0.948 0.643 0.393 1.285 0.786 1.932 1.171 1.052 0.626 2.195 1.176 3.33 1.636 1.22 0.496 2.445 0.932 3.711 1.296-1.899 0.056-3.807-0.027-5.695-0.235zM24.669 27.099c0.129-0.295-0.075-1.86-0.707-1.393-0.246 0.178 0.064 1.465 0.265 1.651-0.256 0.086-0.524 0.134-0.789 0.173 0.122-0.284 0.123-2.060-0.583-1.687-0.248 0.128-0.112 0.613-0.078 0.834 0.028 0.182 0.026 0.355 0.041 0.539-0.014 0.131 0.022 0.259 0.007 0.388-0.182 0.018-0.364 0.033-0.546 0.047 0.065-0.33 0.043-0.708-0.291-0.898-0.544-0.311-0.446 0.721-0.403 0.947-0.178 0.011-0.355 0.022-0.533 0.034 0.036-0.304-0.38-1.263-0.742-0.737-0.101 0.148-0.007 0.351-0.028 0.514-0.010 0.082 0.028 0.191 0.029 0.277-0.259 0.023-0.463 0.059-0.715-0.012-1.276-0.364-2.519-0.863-3.758-1.339-1.19-0.456-2.347-0.966-3.515-1.476-0.881-0.385-1.728-0.854-2.59-1.28-0.216-0.107-0.433-0.214-0.653-0.312-0.203-0.090-1.017-0.655-1.239-0.521 0.465-1.77 0.984-3.54 1.593-5.266 0.411 0.614 1.289 1.015 1.9 1.395 0.749 0.465 1.518 0.898 2.297 1.313 1.047 0.559 2.136 1.042 3.211 1.548 1.2 0.566 2.516 1.034 3.787 1.421 0.623 0.189 1.247 0.378 1.875 0.548 0.636 0.173 1.691 0.598 2.336 0.357 0.116 0.813 0.304 2.431-0.172 2.935z"></path>
<path class="path2" d="M13.973 18.462c0.087-0.077 0.052-0.028 0 0 0.416-0.226 0.045-0.797-0.356-0.58-0.434 0.233 0.032 0.866 0.356 0.58z"></path>
<path class="path3" d="M15.816 17.556c0.468-0.068 0.333-0.709-0.081-0.754-0.517-0.056-0.437 0.831 0.081 0.754z"></path>
<path class="path4" d="M17.307 18.346c0.418-0.225 0.045-0.797-0.355-0.581-0.434 0.235-0.090 0.822 0.355 0.581z"></path>
<path class="path5" d="M17.214 19.689c0.044 0.004 0.088 0.007-0.001-0-0.249-0.019-0.396 0.48-0.017 0.512 0.356 0.031 0.358-0.48 0.018-0.511z"></path>
<path class="path6" d="M15.685 19.383c-0.054 0.022-0.107 0.045 0 0s0.054-0.022 0.001-0c0.435-0.183 0.143-0.771-0.268-0.71-0.514 0.076-0.214 0.913 0.268 0.71z"></path>
<path class="path7" d="M11.785 17.503c0.454-0.059 0.337-0.745-0.112-0.685-0.397 0.053-0.309 0.744 0.112 0.685z"></path>
<path class="path8" d="M8.455 25.502c-0.472 0.096-0.3 0.809 0.168 0.714 0.413-0.085 0.271-0.804-0.168-0.714z"></path>
<path class="path9" d="M10.45 26.081c-0.337-0.135-0.524 0.384-0.19 0.517 0.296 0.117 0.503-0.393 0.19-0.517z"></path>
<path class="path10" d="M22.498 21.465c0.478-0.050 0.32-0.749-0.144-0.7-0.498 0.052-0.422 0.761 0.144 0.7z"></path>
</symbol>
<symbol id="icon-brick" viewBox="0 0 32 32">
<title>brick</title>
<path class="path1" d="M30.331 17.667l-1.342-3.954c-0.015-0.044-0.035-0.085-0.057-0.124-0.003-0.006-0.005-0.013-0.009-0.019-0.031-0.055-0.070-0.103-0.112-0.148-0.011-0.011-0.023-0.021-0.034-0.032-0.035-0.033-0.072-0.063-0.112-0.088-0.009-0.006-0.015-0.014-0.024-0.019l-12.497-7.449c-0.255-0.152-0.574-0.15-0.827 0.005l-11.544 7.060c-0.008 0.005-0.014 0.012-0.022 0.018-0.042 0.028-0.082 0.060-0.119 0.096-0.014 0.014-0.027 0.027-0.040 0.042-0.030 0.034-0.056 0.070-0.080 0.11-0.010 0.016-0.021 0.031-0.029 0.047-0.003 0.006-0.008 0.011-0.011 0.018l-1.765 3.592c-0.188 0.382-0.044 0.843 0.327 1.051l14.826 8.305c0.122 0.068 0.256 0.102 0.391 0.102 0.145 0 0.29-0.039 0.418-0.118l12.321-7.555c0.319-0.195 0.459-0.585 0.339-0.939zM15.74 7.456l10.949 6.526-9.666 5.969-11.258-6.394 9.974-6.1zM17.234 24.551l-13.755-7.705 1.056-2.149 12.112 6.879c0.122 0.070 0.259 0.104 0.395 0.104 0.146 0 0.292-0.040 0.42-0.119l10.336-6.382 0.813 2.397-11.376 6.976z"></path>
<path class="path2" d="M14.378 11.832l1.609-1.015 1.694 1.137c0.137 0.092 0.292 0.136 0.445 0.136 0.258 0 0.511-0.124 0.665-0.355 0.246-0.367 0.148-0.864-0.219-1.11l-2.127-1.427c-0.263-0.176-0.605-0.181-0.873-0.012l-2.049 1.293c-0.374 0.236-0.485 0.73-0.25 1.103s0.73 0.485 1.103 0.25z"></path>
<path class="path3" d="M18.537 17.604c0.258 0 0.511-0.124 0.665-0.354 0.246-0.367 0.148-0.864-0.219-1.11l-2.127-1.426c-0.261-0.175-0.6-0.181-0.867-0.016l-1.997 1.238c-0.375 0.233-0.491 0.726-0.259 1.101s0.726 0.492 1.101 0.259l1.559-0.966 1.698 1.139c0.137 0.092 0.292 0.136 0.445 0.136z"></path>
<path class="path4" d="M17.881 14.408c0.253 0.363 0.751 0.451 1.114 0.199l1.464-1.019 1.672 1.122c0.137 0.092 0.292 0.136 0.445 0.136 0.258 0 0.511-0.124 0.665-0.355 0.246-0.367 0.148-0.864-0.219-1.11l-2.127-1.427c-0.274-0.184-0.633-0.181-0.903 0.008l-1.913 1.332c-0.363 0.252-0.452 0.751-0.199 1.114z"></path>
<path class="path5" d="M14.615 14.492c0.246-0.367 0.148-0.864-0.219-1.11l-2.127-1.427c-0.262-0.176-0.602-0.181-0.87-0.014l-2.049 1.281c-0.375 0.234-0.489 0.728-0.255 1.102s0.728 0.489 1.102 0.255l1.61-1.006 1.696 1.138c0.137 0.092 0.292 0.136 0.445 0.136 0.258 0 0.511-0.124 0.665-0.355z"></path>
</symbol>
<symbol id="icon-cookie" viewBox="0 0 32 32">
<title>cookie</title>
<path class="path1" d="M14.975 1.6c-7.458 0-13.301 6.174-13.301 14.056 0 8.13 5.967 14.744 13.301 14.744 3.672 0 7.51-1.635 10.528-4.487 3.065-2.895 4.823-6.633 4.823-10.257 0-7.356-7.317-14.056-15.351-14.056zM14.975 28.8c-6.452 0-11.7-5.896-11.7-13.144-0-6.985 5.139-12.456 11.7-12.456 7.068 0 13.751 6.053 13.751 12.456 0 6.633-6.812 13.144-13.751 13.144z"></path>
<path class="path2" d="M13.6 13.5c-0.832 0-1.459 0.731-1.459 1.7 0 0.918 0.6 1.559 1.459 1.559 0.864 0 1.49-0.656 1.49-1.559 0-0.954-0.655-1.7-1.49-1.7z"></path>
<path class="path3" d="M19.266 7.302c-0.093 0-0.188 0.005-0.283 0.010-0.062 0.004-0.124 0.007-0.183 0.007-0.367 0-0.909 0.053-1.368 0.512-0.029 0.028-0.060 0.058-0.092 0.088-0.258 0.245-0.691 0.656-0.691 1.28 0 0.685 0.495 1.18 0.733 1.418 0.454 0.454 0.931 0.684 1.418 0.684 0.637 0 1.059-0.428 1.311-0.683l0.054-0.054c0.355-0.355 0.528-0.802 0.528-1.365 0-0.056 0.003-0.114 0.006-0.173 0.016-0.367 0.041-0.922-0.381-1.344-0.381-0.38-0.885-0.38-1.051-0.38z"></path>
<path class="path4" d="M12 8.876c0.859 0 1.584-0.767 1.584-1.676 0-0.85-0.651-1.444-1.584-1.444-0.925 0-1.571 0.594-1.571 1.444 0 0.924 0.705 1.676 1.571 1.676z"></path>
<path class="path5" d="M24.8 11.185c-0.873 0-1.557 0.709-1.557 1.615 0 0.92 0.699 1.668 1.557 1.668 0.898 0 1.715-0.795 1.715-1.668 0-0.86-0.801-1.615-1.715-1.615z"></path>
<path class="path6" d="M7.2 12.837c-0.879 0-1.542 0.672-1.542 1.563s0.677 1.591 1.542 1.591c0.891 0 1.615-0.714 1.615-1.591s-0.709-1.563-1.615-1.563z"></path>
<path class="path7" d="M25.487 19.981c0-0.333 0-0.747-0.241-1.163-0.199-0.344-0.485-0.62-0.874-0.846-0.31-0.18-0.691-0.363-1.172-0.363-0.459 0-0.865 0.101-1.208 0.3-0.386 0.223-0.697 0.526-0.899 0.874-0.213 0.368-0.33 0.8-0.33 1.217 0 0.494 0.22 0.872 0.38 1.148l0.018 0.031c0.247 0.426 0.604 0.633 0.896 0.802l0.058 0.034c0.254 0.149 0.603 0.353 1.086 0.353 0.375 0 0.81-0.020 1.22-0.257 0.329-0.191 0.608-0.489 0.853-0.912 0.226-0.391 0.22-0.787 0.215-1.076l-0.002-0.14z"></path>
<path class="path8" d="M18.4 22.434c-0.84 0-1.74 0.629-1.74 1.566 0 0.873 0.846 1.699 1.74 1.699 0.887 0 1.725-0.826 1.725-1.699 0-0.937-0.892-1.566-1.725-1.566z"></path>
<path class="path9" d="M12.153 21.372c-0.265-0.267-0.708-0.713-1.353-0.713-0.611 0-1.167 0.339-1.484 0.656-0.389 0.39-0.641 0.972-0.641 1.484 0 0.623 0.448 0.997 0.688 1.198 0.045 0.037 0.090 0.073 0.128 0.111 0.029 0.029 0.058 0.060 0.086 0.090 0.224 0.237 0.599 0.633 1.223 0.633 0.626 0 1.007-0.397 1.234-0.635l0.080-0.083c0.216-0.217 0.62-0.62 0.62-1.314 0-0.561-0.183-1.029-0.544-1.39l-0.037-0.038z"></path>
</symbol>
<symbol id="icon-cupcake" viewBox="0 0 32 32">
<title>cupcake</title>
<path class="path1" d="M16.187 23.196v3.983c0 0.177-0.143 0.32-0.32 0.32s-0.32-0.143-0.32-0.32v-3.983c0-0.177 0.143-0.32 0.32-0.32s0.32 0.143 0.32 0.32zM19.554 22.667c-0.171-0.021-0.336 0.101-0.359 0.276l-0.516 3.959c-0.023 0.175 0.101 0.336 0.276 0.359 0.014 0.002 0.028 0.003 0.042 0.003 0.158 0 0.296-0.117 0.317-0.279l0.516-3.959c0.023-0.175-0.1-0.336-0.276-0.359zM12.165 22.667c-0.175 0.023-0.299 0.183-0.276 0.359l0.515 3.959c0.021 0.161 0.159 0.279 0.317 0.279 0.014 0 0.028-0.001 0.042-0.003 0.175-0.023 0.299-0.183 0.276-0.359l-0.515-3.959c-0.023-0.175-0.185-0.3-0.358-0.276zM23.944 20.601l-1.762 7.105c-0.002 0.121-0.059 0.236-0.164 0.307-0.069 0.046-1.744 1.132-6.144 1.132s-6.075-1.086-6.144-1.132c-0.080-0.053-0.136-0.134-0.159-0.227l-1.777-7.165c-1.282-1.187-1.788-2.879-1.716-4.055 0.056-0.916 0.563-2.073 1.46-2.985-0.103-0.188-0.167-0.401-0.167-0.631 0-0.557 0.345-1.033 0.832-1.23-0.025-0.117-0.041-0.196-0.041-0.2-0.075-0.587-0.030-1.206 0.128-1.79 0.241-0.889 0.747-1.698 1.389-2.22 0.041-0.033 0.084-0.062 0.127-0.094-0.064-0.158-0.098-0.327-0.098-0.498 0-0.732 0.596-1.328 1.328-1.328 0.511 0 0.956 0.289 1.178 0.722 0.057-0.018 0.113-0.036 0.17-0.054 0.485-0.154 0.958-0.307 1.398-0.5 0.196-0.489 0.673-0.836 1.231-0.836 0.016 0 0.030 0.004 0.046 0.005 0.13-0.129 0.253-0.267 0.364-0.425 0.225-0.321 0.36-0.837 0.322-1.226-0.013-0.136 0.047-0.269 0.157-0.349s0.256-0.095 0.38-0.040c0.988 0.437 2.423 1.145 3.484 2.233 0.664 0.676 1.065 1.654 1.153 2.705 0.7 0.036 1.261 0.612 1.261 1.321 0 0.204-0.051 0.399-0.138 0.578 1.659 0.955 3.249 2.378 3.693 3.914 0.544 1.868-0.051 5.083-1.789 6.962zM11.974 21.123v0l-0 0zM9.032 9.931c-0.037 0.138-0.065 0.277-0.087 0.418 0.424-0.043 1.123-0.128 1.979-0.281 0.138-0.025 0.272 0.068 0.297 0.207s-0.068 0.272-0.207 0.297c-0.947 0.17-1.695 0.256-2.113 0.297-0.004 0.187 0 0.373 0.024 0.555 0.006 0.035 0.027 0.12 0.055 0.229 0.513 0.111 0.917 0.517 1.021 1.033 1.221-0.056 3.43-0.271 5.74-1.052-0.007-0.057-0.018-0.114-0.018-0.173 0-0.732 0.596-1.328 1.328-1.328 0.418 0 0.787 0.198 1.030 0.501 0.684-0.363 1.348-0.793 1.971-1.294 0-0.005 0.002-0.010 0.003-0.015 0.002-0.016-0.002-0.031 0.001-0.047 0.176-0.765 0.148-1.732-0.185-2.574-0.343 0.345-0.732 0.674-1.163 0.982-0.045 0.032-0.097 0.048-0.149 0.048-0.080 0-0.158-0.037-0.208-0.107-0.082-0.115-0.056-0.275 0.060-0.357 0.461-0.33 0.868-0.684 1.22-1.055-0.118-0.198-0.251-0.388-0.414-0.555-0.801-0.822-1.863-1.418-2.732-1.832-0.064 0.404-0.217 0.809-0.433 1.117-0.068 0.098-0.14 0.188-0.214 0.276 0.304 0.244 0.503 0.613 0.503 1.032 0 0.732-0.596 1.327-1.328 1.327-0.608 0-1.116-0.412-1.273-0.971-0.37 0.142-0.748 0.263-1.124 0.382-0.91 0.289-1.769 0.562-2.452 1.116-0.52 0.422-0.932 1.087-1.132 1.825zM6.844 16.612c-0.021 0.353 0.027 0.776 0.147 1.218 0.476-0.079 0.907 0.156 1.296 0.372 0.374 0.208 0.727 0.404 1.087 0.32 0.221-0.052 0.447-0.182 0.685-0.32 0.511-0.294 1.148-0.66 1.836-0.144 0.272 0.204 0.438 0.488 0.584 0.738 0.247 0.424 0.409 0.664 0.842 0.664 0.502 0 0.73-0.3 0.999-0.89 0.295-0.651 0.705-1.369 1.5-1.757 0.979-0.479 1.972-0.283 2.952 0.585l0.155 0.139c0.715 0.644 1.268 1.071 1.891 0.7 0.498-0.299 0.641-0.858 0.792-1.449 0.056-0.22 0.115-0.448 0.193-0.662 0.115-0.319 0.402-0.744 0.829-0.889 0.264-0.090 0.533-0.055 0.776 0.102 0.19 0.122 0.316 0.314 0.428 0.484 0.205 0.313 0.287 0.393 0.467 0.356 0.451-0.090 0.717-0.849 0.843-1.419-0.023-0.329-0.070-0.636-0.149-0.906-0.421-1.457-2.365-3.173-4.637-4.104-0.648 0.521-1.336 0.965-2.039 1.341 0.035 0.118 0.059 0.24 0.059 0.369 0 0.732-0.596 1.328-1.327 1.328-0.487 0-0.909-0.266-1.14-0.658-2.388 0.813-4.655 1.025-5.909 1.075-0.12 0.61-0.657 1.073-1.302 1.073-0.222 0-0.428-0.060-0.612-0.157-0.759 0.772-1.196 1.748-1.242 2.491zM22.94 21.459c-0.281 0.166-0.619 0.322-1.025 0.425-0.929 0.235-1.677-0.016-2.105-0.266-0.325 0.281-0.959 0.697-1.924 0.759-0.919 0.052-1.62-0.253-2.018-0.532-0.366 0.258-0.99 0.538-1.808 0.538-0.068 0-0.138-0.002-0.208-0.006-0.903-0.058-1.558-0.438-1.923-0.759-0.428 0.25-1.176 0.502-2.106 0.266-0.41-0.104-0.748-0.261-1.031-0.428l1.484 5.985c0.436 0.223 2.103 0.937 5.598 0.937 3.448 0 5.116-0.694 5.581-0.928l1.485-5.99zM13.19 10.086c0.022 0 0.044-0.003 0.066-0.009 1.381-0.367 2.623-0.821 3.693-1.35 0.127-0.063 0.179-0.216 0.116-0.343s-0.217-0.179-0.343-0.116c-1.039 0.514-2.249 0.956-3.597 1.314-0.137 0.036-0.218 0.176-0.181 0.313 0.030 0.115 0.134 0.19 0.247 0.19zM12.463 16.613c0.732 0 1.328-0.596 1.328-1.328s-0.596-1.328-1.328-1.328c-0.732 0-1.327 0.596-1.327 1.328s0.596 1.328 1.327 1.328zM21.148 13.992c0.732 0 1.328-0.596 1.328-1.328s-0.596-1.328-1.328-1.328-1.328 0.596-1.328 1.328c0 0.732 0.596 1.328 1.328 1.328z"></path>
</symbol>
<symbol id="icon-donut" viewBox="0 0 32 32">
<title>donut</title>
<path class="path1" d="M16 0.667c-8.467 0-15.333 6.867-15.333 15.333 0 1.333 0.2 2.667 0.533 3.933v0l0.133 0.467c0 0 0 0 0 0l0.133 0.333c2 6.267 7.933 10.6 14.533 10.6 8.133 0 14.8-6.333 15.267-14.4v0-0.267c0-0.067 0-0.133 0-0.2 0-0.133 0-0.267 0-0.4 0.067-8.533-6.8-15.4-15.267-15.4zM16 11.4c2.533 0 4.6 2.067 4.6 4.6s-2.067 4.6-4.6 4.6-4.6-2.067-4.6-4.6 2.067-4.6 4.6-4.6zM16 30.533c-6.2 0-11.8-4.067-13.733-9.867 0.2 0 0.4-0.067 0.533-0.067 0 0 0.067 0 0.067 0 0.133 0 0.267 0 0.333 0s0.067 0 0.133 0c0.133 0 0.267 0 0.4 0 1.2 0.2 2.067 1.067 3 2 0.667 0.667 1.4 1.4 2.333 1.867 1.2 0.6 2.6 0.733 3.8 0.8 0.467 0 0.867 0.067 1.333 0.067 0.933 0 1.733-0.133 2.333-0.4 0.467-0.2 0.867-0.467 1.2-0.733 0.4-0.267 0.733-0.533 1.133-0.733 0.2-0.067 0.467-0.133 0.733-0.133 0.467 0 0.933 0.133 1.133 0.6 0.067 0.133 0.067 0.333 0.067 0.533 0 0.333 0 0.667 0.2 0.933 0 0.067 0.067 0.133 0.133 0.133 0.067 0.067 0.067 0.067 0.133 0.133 0.267 0.267 0.6 0.4 1 0.4 0 0 0 0 0.067 0v0 0c0.2 0 0.4 0 0.533-0.067 0.6-0.2 1.067-0.667 1.333-1.067 0.8-1 1.333-2.2 1.6-3.467 0.067-0.333 0.133-0.6 0.133-0.933 0.067-0.533 0.133-1.067 0.333-1.6 0.2-0.6 0.733-1.333 1.467-1.4 0.2 0 0.467 0 0.733 0 0.133 0 0.333 0 0.467 0.067 0.133 0 0.267 0 0.333 0s0.067 0 0.133 0 0.133 0 0.2 0c0.067 0 0.133 0 0.133 0 0.067 0 0.133 0 0.2-0.067 0.067 0 0.133-0.067 0.267-0.067 0.067 0 0.133 0 0.133-0.067 0 0 0.067 0 0.067 0-0.6 7.333-6.8 13.133-14.4 13.133z"></path>
</symbol>
<symbol id="icon-other" viewBox="0 0 32 32">
<title>other</title>
<path class="path1" d="M3.363 8.914c0.118-0.023 0.228-0.082 0.349-0.086 1.083-0.040 2.176 0.188 3.149 0.664 1.404 0.672 2.546 1.86 3.188 3.275 0.080 0.172 0.158 0.346 0.22 0.526 0.546-1.108 1.401-2.064 2.448-2.72 1.167-0.744 2.572-1.107 3.954-1.020 1.568 0.085 3.088 0.759 4.22 1.843 0.568 0.561 1.067 1.205 1.399 1.935 0.57-1.676 1.849-3.091 3.445-3.851 0.982-0.464 2.077-0.712 3.164-0.642 0.125 0.007 0.232 0.079 0.347 0.122 0.504 0.196 0.939 0.556 1.238 1.005 0.689 1.012 0.674 2.445-0.044 3.438 0.412 0.332 0.719 0.781 0.903 1.275 0.354 0.983 0.185 2.159-0.5 2.961 0.559 0.734 0.75 1.727 0.514 2.618-0.205 0.813-0.775 1.544-1.555 1.874-0.117 0.061-0.257 0.063-0.367 0.139-0.132 0.083-0.294 0.066-0.443 0.081-0.479 0.049-0.961-0.010-1.437-0.064-1.761-0.268-3.388-1.292-4.412-2.747-0.209-0.294-0.389-0.608-0.556-0.927-0.398 1.111-1.087 2.119-1.989 2.882-0.845 0.721-1.874 1.224-2.962 1.452-0.317 0.070-0.642 0.087-0.964 0.116-0.346 0.036-0.694 0.011-1.040-0.018-1.218-0.093-2.388-0.574-3.366-1.297-0.452-0.355-0.887-0.742-1.233-1.204-0.463-0.579-0.829-1.236-1.074-1.935-0.469 0.977-1.193 1.827-2.064 2.47-0.984 0.716-2.166 1.176-3.384 1.255-0.289 0.020-0.58 0.053-0.87 0.018-0.184-0.023-0.37-0.013-0.555-0.024-0.492-0.089-0.959-0.329-1.315-0.68-0.82-0.79-1.086-2.075-0.703-3.139 0.081-0.252 0.202-0.491 0.358-0.704-0.48-0.511-0.738-1.205-0.775-1.9 0.007-0.128 0.009-0.256 0.005-0.384 0.064-0.836 0.494-1.646 1.177-2.141-0.366-0.542-0.54-1.204-0.504-1.856 0.047-0.681 0.306-1.359 0.78-1.857 0.333-0.361 0.765-0.648 1.25-0.753zM2.894 10.288c-0.412 0.396-0.602 0.99-0.558 1.554 0.040 0.442 0.195 0.889 0.507 1.214 0.109 0.107 0.17 0.262 0.149 0.415-0.012 0.155-0.128 0.269-0.19 0.405-0.066 0.136-0.212 0.196-0.332 0.273-0.376 0.243-0.627 0.641-0.756 1.063-0.067 0.223-0.066 0.459-0.061 0.69 0.033 0.501 0.233 1.010 0.622 1.341 0.115 0.109 0.277 0.172 0.354 0.318 0.112 0.188 0.074 0.446-0.084 0.597-0.075 0.078-0.178 0.115-0.28 0.143-0.086 0.172-0.202 0.331-0.256 0.518-0.239 0.658-0.116 1.441 0.328 1.984 0.235 0.246 0.518 0.474 0.862 0.535 0.202-0.002 0.404 0.018 0.605 0.034 0.188 0.018 0.376-0.009 0.564-0.020 1.205-0.064 2.374-0.561 3.287-1.346 0.9-0.772 1.553-1.826 1.842-2.977-0.945 0.504-1.995 0.82-3.065 0.886-0.167 0.007-0.348 0.046-0.504-0.036-0.185-0.090-0.298-0.303-0.267-0.506 0.025-0.224 0.221-0.413 0.446-0.427 0.332-0.023 0.664-0.049 0.992-0.107 0.883-0.171 1.735-0.51 2.481-1.015 0.010-0.105 0.019-0.21 0.030-0.315-0.164-0.189-0.356-0.352-0.549-0.51-0.833-0.694-1.858-1.138-2.917-1.348-0.262-0.050-0.441-0.337-0.374-0.595 0.054-0.26 0.338-0.434 0.595-0.37 1.114 0.22 2.185 0.678 3.093 1.361-0.1-0.331-0.205-0.663-0.358-0.974-0.371-0.772-0.913-1.463-1.58-2.001-1.020-0.827-2.334-1.284-3.648-1.26-0.359 0.066-0.731 0.191-0.979 0.474zM27.998 9.858c-1.049 0.1-2.062 0.521-2.889 1.17-0.88 0.688-1.557 1.634-1.91 2.695 0.717-0.413 1.493-0.737 2.308-0.893 0.145-0.033 0.302 0.010 0.415 0.105 0.2 0.161 0.236 0.481 0.075 0.681-0.109 0.156-0.307 0.192-0.48 0.226-0.434 0.119-0.868 0.248-1.272 0.45-0.483 0.218-0.929 0.51-1.341 0.84 0.007 0.271 0.066 0.539 0.070 0.811 0.834 0.58 1.809 0.953 2.814 1.1 0.209 0.036 0.457 0.001 0.621 0.164 0.228 0.199 0.201 0.6-0.052 0.767-0.174 0.133-0.402 0.083-0.601 0.063-0.926-0.116-1.828-0.412-2.652-0.852 0.112 0.386 0.255 0.765 0.448 1.119 0.278 0.501 0.601 0.983 1.011 1.387 0.234 0.216 0.465 0.436 0.726 0.619 0.839 0.599 1.84 0.984 2.873 1.044 0.328 0.033 0.66 0.030 0.987-0.011 0.168-0.090 0.352-0.152 0.51-0.262 0.363-0.23 0.607-0.614 0.726-1.021 0.141-0.489 0.097-1.030-0.125-1.488-0.101-0.216-0.258-0.399-0.408-0.581-0.145-0.125-0.213-0.335-0.152-0.519 0.030-0.122 0.123-0.212 0.214-0.292 0.27-0.234 0.438-0.564 0.536-0.903 0.208-0.717-0.013-1.554-0.585-2.044-0.118-0.114-0.268-0.182-0.406-0.266-0.224-0.135-0.322-0.447-0.207-0.683 0.050-0.113 0.155-0.185 0.236-0.274 0.318-0.342 0.492-0.804 0.511-1.268 0.035-0.697-0.305-1.43-0.929-1.773-0.147-0.067-0.294-0.161-0.462-0.145-0.205-0.011-0.407 0.020-0.611 0.035zM14.103 10.965c-1.058 0.433-1.969 1.201-2.598 2.153 0.222 0.053 0.422 0.172 0.592 0.322 0.4 0.339 0.644 0.825 1.063 1.144 0.214 0.172 0.497 0.29 0.773 0.22 0.345-0.089 0.607-0.353 0.836-0.612 0.269-0.325 0.519-0.683 0.888-0.905 0.257-0.164 0.585-0.231 0.879-0.134 0.379 0.124 0.672 0.416 0.918 0.718 0.256 0.327 0.526 0.666 0.903 0.858 0.244 0.126 0.544 0.125 0.787-0.001 0.414-0.208 0.692-0.593 0.974-0.946 0.246-0.29 0.527-0.595 0.912-0.685-0.264-0.394-0.576-0.754-0.921-1.079-0.452-0.412-0.976-0.742-1.53-0.999-1.401-0.628-3.062-0.653-4.477-0.054zM20.932 13.987c-0.252 0.13-0.431 0.357-0.607 0.572-0.274 0.353-0.569 0.706-0.96 0.934-0.26 0.153-0.577 0.224-0.872 0.146-0.388-0.097-0.697-0.372-0.965-0.655-0.302-0.324-0.531-0.738-0.939-0.946-0.228-0.124-0.515-0.112-0.736 0.022-0.398 0.225-0.622 0.639-0.93 0.959-0.252 0.266-0.547 0.519-0.91 0.611-0.289 0.076-0.6 0.004-0.851-0.15-0.422-0.252-0.722-0.651-1.024-1.028-0.205-0.232-0.449-0.491-0.779-0.509-0.118 0.005-0.26 0.022-0.346 0.11-0.234 0.53-0.364 1.1-0.433 1.674 0.207-0.185 0.465-0.338 0.75-0.341 0.281-0.004 0.538 0.141 0.746 0.317 0.416 0.343 0.663 0.848 1.098 1.172 0.219 0.174 0.513 0.285 0.791 0.201 0.375-0.115 0.65-0.418 0.893-0.71 0.26-0.333 0.536-0.678 0.925-0.867 0.253-0.127 0.559-0.147 0.823-0.040 0.389 0.154 0.678 0.475 0.93 0.797 0.245 0.308 0.515 0.623 0.885 0.782 0.255 0.112 0.556 0.076 0.791-0.065 0.421-0.242 0.692-0.657 0.999-1.019 0.23-0.251 0.492-0.519 0.843-0.578 0.325-0.050 0.619 0.149 0.844 0.362-0.011-0.225 0.021-0.454-0.037-0.675-0.080-0.32-0.162-0.644-0.3-0.944-0.146-0.176-0.424-0.244-0.63-0.133zM10.567 16.706c0.015 0.392 0.106 0.775 0.195 1.155 0.178-0.116 0.382-0.204 0.598-0.196 0.284 0.006 0.538 0.16 0.746 0.342 0.359 0.306 0.588 0.731 0.941 1.041 0.196 0.177 0.439 0.335 0.713 0.334 0.274 0.001 0.517-0.156 0.716-0.331 0.391-0.338 0.633-0.819 1.058-1.122 0.264-0.202 0.613-0.322 0.944-0.233 0.396 0.104 0.702 0.403 0.956 0.709 0.266 0.337 0.54 0.695 0.935 0.888 0.252 0.127 0.562 0.115 0.808-0.023 0.429-0.229 0.704-0.643 1.007-1.007 0.231-0.256 0.49-0.529 0.84-0.604 0.276-0.059 0.544 0.078 0.752 0.247 0.092-0.342 0.163-0.692 0.193-1.045 0.008-0.064-0.050-0.108-0.083-0.155-0.166-0.187-0.339-0.39-0.581-0.474-0.201-0.070-0.411 0.027-0.563 0.157-0.348 0.294-0.574 0.701-0.904 1.012-0.292 0.286-0.66 0.544-1.084 0.547-0.425-0-0.795-0.258-1.086-0.546-0.352-0.322-0.573-0.773-0.983-1.033-0.214-0.146-0.501-0.189-0.74-0.077-0.333 0.15-0.565 0.447-0.784 0.729-0.273 0.333-0.581 0.662-0.984 0.833-0.301 0.13-0.655 0.102-0.94-0.055-0.461-0.245-0.78-0.672-1.1-1.070-0.204-0.231-0.448-0.489-0.776-0.508-0.333-0.003-0.587 0.252-0.793 0.484zM11.014 18.59c0.164 0.373 0.352 0.738 0.594 1.068 0.669 0.966 1.652 1.707 2.756 2.106 0.645 0.239 1.336 0.326 2.021 0.327 0.45-0.033 0.905-0.057 1.341-0.183 0.675-0.179 1.315-0.483 1.881-0.891 0.839-0.605 1.506-1.443 1.914-2.393-0.11-0.073-0.233-0.14-0.37-0.135-0.184 0.004-0.343 0.116-0.474 0.236-0.326 0.305-0.553 0.699-0.884 0.999-0.289 0.274-0.657 0.515-1.071 0.503-0.438-0.014-0.81-0.294-1.106-0.595-0.319-0.311-0.535-0.724-0.915-0.972-0.21-0.147-0.491-0.202-0.731-0.099-0.322 0.134-0.553 0.411-0.762 0.68-0.244 0.308-0.515 0.606-0.856 0.807-0.25 0.148-0.555 0.214-0.839 0.138-0.374-0.098-0.675-0.364-0.932-0.64-0.309-0.328-0.536-0.752-0.945-0.971-0.193-0.109-0.431-0.089-0.621 0.014z"></path>
</symbol>
</defs>
</svg>
